<svg width="42" height="42" viewBox="0 0 42 42" fill="none" xmlns="http://www.w3.org/2000/svg">
<g clip-path="url(#clip0_94_246)">
<path d="M14 19.25C16.3206 19.25 18.5462 18.3281 20.1872 16.6872C21.8281 15.0462 22.75 12.8206 22.75 10.5C22.75 8.17936 21.8281 5.95376 20.1872 4.31282C18.5462 2.67187 16.3206 1.75 14 1.75C11.6794 1.75 9.45376 2.67187 7.81282 4.31282C6.17187 5.95376 5.25 8.17936 5.25 10.5C5.25 12.8206 6.17187 15.0462 7.81282 16.6872C9.45376 18.3281 11.6794 19.25 14 19.25ZM14 19.25C17.5228 19.25 20.601 20.58 22.7902 22.7902C24.0882 24.1062 25.0592 25.7084 25.6252 27.468M14 19.25C7 19.25 1.75 24.5 1.75 31.5V40.25H19.25M21 32.942L28.3325 38.5L40.25 22.75" stroke="white" stroke-width="3"/>
</g>
<defs>
<clipPath id="clip0_94_246">
<rect width="42" height="42" fill="white"/>
</clipPath>
</defs>
</svg>
